<?xml version="1.0" encoding="UTF-8"?>
<svg id="Layer_1" data-name="Layer 1" xmlns="http://www.w3.org/2000/svg" viewBox="0 0 770.71 433.52">
  <defs>
    <style>
      .cls-1 {
        fill: #f4f4f5;
      }
    </style>
  </defs>
  <g>
    <path class="cls-1" d="M427.51,159.25l-24.7,22.15v-52.39h-10.67v67.92h10.67l32.89-29.5-8.19-8.19Z"/>
    <path class="cls-1" d="M364.94,165.33l6.84,32.47-45.37-26.19-5.34,9.24,58.82,33.96,5.34-9.24-9.1-43.23-11.19,3Z"/>
    <path class="cls-1" d="M338.92,222.56l31.54,10.32-45.37,26.19,5.34,9.24,58.82-33.96-5.34-9.24-41.99-13.74-3,11.19Z"/>
    <path class="cls-1" d="M375.47,273.71l24.7-22.15v52.39s10.67,0,10.67,0v-67.92s-10.67,0-10.67,0l-32.89,29.5,8.19,8.19Z"/>
    <path class="cls-1" d="M438.05,267.63l-6.84-32.47,45.37,26.19,5.34-9.24-58.82-33.96-5.34,9.24,9.1,43.23,11.19-3Z"/>
    <path class="cls-1" d="M464.07,210.4l-31.54-10.32,45.37-26.19-5.34-9.24-58.82,33.96,5.34,9.24,41.99,13.74,3-11.19Z"/>
  </g>
  <line class="cls-1" x1="418.4" y1="186.98" x2="410.21" y2="178.79"/>
</svg>