<?xml version="1.0" encoding="UTF-8"?>
<svg id="Layer_1" data-name="Layer 1" xmlns="http://www.w3.org/2000/svg" viewBox="0 0 770.71 433.52">
  <defs>
    <style>
      .cls-1 {
        fill: #1a2e4e;
      }
    </style>
  </defs>
  <g>
    <g>
      <path class="cls-1" d="M172.23,170.12l-24.7,22.15v-52.39h-10.67v67.92h10.67l32.89-29.5-8.19-8.19Z"/>
      <path class="cls-1" d="M109.65,176.2l6.84,32.47-45.37-26.19-5.34,9.24,58.82,33.96,5.34-9.24-9.1-43.23-11.19,3Z"/>
      <path class="cls-1" d="M83.63,233.43l31.54,10.32-45.37,26.19,5.34,9.24,58.82-33.96-5.34-9.24-41.99-13.74-3,11.19Z"/>
      <path class="cls-1" d="M120.19,284.58l24.7-22.15v52.39s10.67,0,10.67,0v-67.92s-10.67,0-10.67,0l-32.89,29.5,8.19,8.19Z"/>
      <path class="cls-1" d="M182.76,278.5l-6.84-32.47,45.37,26.19,5.34-9.24-58.82-33.96-5.34,9.24,9.1,43.23,11.19-3Z"/>
      <path class="cls-1" d="M208.78,221.27l-31.54-10.32,45.37-26.19-5.34-9.24-58.82,33.96,5.34,9.24,41.99,13.74,3-11.19Z"/>
    </g>
    <line class="cls-1" x1="163.11" y1="197.85" x2="154.92" y2="189.66"/>
  </g>
  <g>
    <g>
      <path class="cls-1" d="M324.53,250.71l-15.29-47.57h9.85l11.81,39.67,11.81-39.67h9.85l-14.02,43.49h.09l-6.8,21.07h-18.18v-7.81h11.55l3.06-9.17h-3.74Z"/>
      <path class="cls-1" d="M356.13,203.14h9.85l11.81,39.67,11.81-39.67h9.85l-15.29,47.57h-12.74l-15.29-47.57Z"/>
      <path class="cls-1" d="M411.09,229.98v-5.61h-9.68c.4-4.7,1.68-8.73,3.86-12.1,2.18-3.37,5.02-5.96,8.54-7.77,3.51-1.81,7.45-2.72,11.81-2.72s8.21,1.1,11.72,3.31c3.51,2.21,6.21,5.42,8.11,9.64,1.9,4.22,2.53,9.3,1.91,15.25h-36.27ZM425.61,252.07c-4.59,0-8.61-.93-12.06-2.8-3.46-1.87-6.23-4.46-8.32-7.77-2.1-3.31-3.34-7.15-3.74-11.51h9.6c.4,4.08,1.8,7.39,4.2,9.94,2.41,2.55,5.85,3.82,10.32,3.82,3.34,0,5.99-.78,7.94-2.34,1.95-1.56,3.33-3.5,4.12-5.82h9.68c-1.13,4.93-3.6,8.91-7.39,11.93-3.79,3.03-8.58,4.54-14.36,4.54ZM425.61,210.11c-3.79,0-6.99,1.08-9.6,3.23-2.61,2.15-4.19,5.13-4.76,8.92h27.1c-.34-3.4-1.59-6.27-3.74-8.62-2.15-2.35-5.15-3.53-9-3.53Z"/>
      <path class="cls-1" d="M454.33,203.14h9.17v7.81c.96-2.38,2.68-4.5,5.14-6.37s5.96-2.8,10.49-2.8c3.06,0,5.79.62,8.2,1.87,2.41,1.25,4.32,3.3,5.73,6.16,1.42,2.86,2.12,6.73,2.12,11.59v29.31h-9.17v-28.2c0-3.85-.62-6.94-1.87-9.26-1.25-2.32-3.68-3.48-7.3-3.48-2.27,0-4.42.65-6.46,1.95-2.04,1.3-3.7,3.23-4.97,5.78-1.27,2.55-1.91,5.72-1.91,9.51v23.7h-9.17v-47.57Z"/>
      <path class="cls-1" d="M518.46,191.25h46.8v8.15h-18.77v51.31h-9.34v-51.31h-18.69v-8.15Z"/>
      <path class="cls-1" d="M570.61,229.98v-5.61h-9.68c.4-4.7,1.68-8.73,3.86-12.1,2.18-3.37,5.02-5.96,8.54-7.77,3.51-1.81,7.45-2.72,11.81-2.72s8.21,1.1,11.72,3.31c3.51,2.21,6.21,5.42,8.11,9.64,1.9,4.22,2.53,9.3,1.91,15.25h-36.27ZM585.14,252.07c-4.59,0-8.61-.93-12.06-2.8-3.46-1.87-6.23-4.46-8.32-7.77-2.1-3.31-3.34-7.15-3.74-11.51h9.6c.4,4.08,1.8,7.39,4.2,9.94,2.41,2.55,5.85,3.82,10.32,3.82,3.34,0,5.99-.78,7.94-2.34,1.95-1.56,3.33-3.5,4.12-5.82h9.68c-1.13,4.93-3.6,8.91-7.39,11.93-3.79,3.03-8.58,4.54-14.36,4.54ZM585.14,210.11c-3.79,0-6.99,1.08-9.6,3.23-2.61,2.15-4.19,5.13-4.76,8.92h27.1c-.34-3.4-1.59-6.27-3.74-8.62-2.15-2.35-5.15-3.53-9-3.53Z"/>
      <path class="cls-1" d="M658.44,230.75c-.17,4.08-1.18,7.73-3.02,10.96-1.84,3.23-4.4,5.76-7.69,7.6-3.28,1.84-7.16,2.76-11.64,2.76-4.93,0-9.22-1.06-12.87-3.19-3.65-2.12-6.47-5.08-8.45-8.88-1.98-3.79-2.97-8.13-2.97-13s.99-9.29,2.97-13.08c1.98-3.79,4.8-6.77,8.45-8.92,3.65-2.15,7.94-3.23,12.87-3.23,4.3,0,8.08.95,11.34,2.85,3.26,1.9,5.83,4.36,7.73,7.39,1.9,3.03,2.93,6.3,3.1,9.81h-9.68c-.11-1.92-.64-3.78-1.57-5.56-.93-1.78-2.29-3.24-4.08-4.37-1.78-1.13-4.06-1.7-6.84-1.7-3.34,0-6.12.72-8.32,2.17s-3.85,3.44-4.93,5.99c-1.08,2.55-1.61,5.44-1.61,8.66,0,4.81,1.22,8.79,3.65,11.93,2.43,3.14,6.17,4.71,11.21,4.71,2.94,0,5.34-.61,7.18-1.83,1.84-1.22,3.21-2.82,4.12-4.8.91-1.98,1.42-4.08,1.53-6.29h9.51Z"/>
      <path class="cls-1" d="M674.24,227.01v23.7h-9.17v-63.71h9.17v24.04c.62-1.58,1.58-3.09,2.89-4.5,1.3-1.41,2.99-2.56,5.05-3.44,2.07-.88,4.63-1.32,7.69-1.32s5.79.62,8.2,1.87c2.41,1.25,4.32,3.3,5.73,6.16,1.42,2.86,2.12,6.73,2.12,11.59v29.31h-9.17v-28.2c0-3.85-.62-6.94-1.87-9.26-1.25-2.32-3.68-3.48-7.3-3.48-2.27,0-4.42.65-6.46,1.95-2.04,1.3-3.7,3.23-4.97,5.78-1.27,2.55-1.91,5.72-1.91,9.51Z"/>
    </g>
    <path class="cls-1" d="M293.53,220.79l-5.01-5.01-23.79,21.33v-45.86h-9.34v59.46h9.34l28.8-25.82v25.82h9.34v-59.46h-9.34v29.54"/>
  </g>
</svg>