<?xml version="1.0" encoding="UTF-8"?>
<svg id="Layer_1" data-name="Layer 1" xmlns="http://www.w3.org/2000/svg" viewBox="0 0 770.71 433.52">
  <defs>
    <style>
      .cls-1 {
        fill: none;
      }

      .cls-2 {
        fill: #f4f4f5;
      }

      .cls-3 {
        fill: #010101;
      }
    </style>
  </defs>
  <rect class="cls-2" width="770.71" height="433.52"/>
  <g>
    <g>
      <g>
        <path class="cls-3" d="M172.23,159.25l-24.7,22.15v-52.39h-10.67v67.92h10.67l32.89-29.5-8.19-8.19Z"/>
        <path class="cls-3" d="M109.65,165.33l6.84,32.47-45.37-26.19-5.34,9.24,58.82,33.96,5.34-9.24-9.1-43.23-11.19,3Z"/>
        <path class="cls-3" d="M83.63,222.56l31.54,10.32-45.37,26.19,5.34,9.24,58.82-33.96-5.34-9.24-41.99-13.74-3,11.19Z"/>
        <path class="cls-3" d="M120.19,273.71l24.7-22.15v52.39s10.67,0,10.67,0v-67.92s-10.67,0-10.67,0l-32.89,29.5,8.19,8.19Z"/>
        <path class="cls-3" d="M182.76,267.63l-6.84-32.47,45.37,26.19,5.34-9.24-58.82-33.96-5.34,9.24,9.1,43.23,11.19-3Z"/>
        <path class="cls-3" d="M208.78,210.4l-31.54-10.32,45.37-26.19-5.34-9.24-58.82,33.96,5.34,9.24,41.99,13.74,3-11.19Z"/>
      </g>
      <line class="cls-1" x1="163.11" y1="186.98" x2="154.92" y2="178.79"/>
    </g>
    <g>
      <g>
        <path class="cls-3" d="M324.53,197.12l-15.29-47.57h9.85l11.81,39.67,11.81-39.67h9.85l-14.02,43.49h.09l-6.8,21.07h-18.18v-7.81h11.55l3.06-9.17h-3.74Z"/>
        <path class="cls-3" d="M356.13,149.56h9.85l11.81,39.67,11.81-39.67h9.85l-15.29,47.57h-12.74l-15.29-47.57Z"/>
        <path class="cls-3" d="M411.09,176.4v-5.61h-9.68c.4-4.7,1.68-8.73,3.86-12.1,2.18-3.37,5.02-5.96,8.54-7.77,3.51-1.81,7.45-2.72,11.81-2.72s8.21,1.1,11.72,3.31c3.51,2.21,6.21,5.42,8.11,9.64,1.9,4.22,2.53,9.3,1.91,15.25h-36.27ZM425.61,198.48c-4.59,0-8.61-.93-12.06-2.8-3.46-1.87-6.23-4.46-8.32-7.77-2.1-3.31-3.34-7.15-3.74-11.51h9.6c.4,4.08,1.8,7.39,4.2,9.94,2.41,2.55,5.85,3.82,10.32,3.82,3.34,0,5.99-.78,7.94-2.34,1.95-1.56,3.33-3.5,4.12-5.82h9.68c-1.13,4.93-3.6,8.91-7.39,11.93-3.79,3.03-8.58,4.54-14.36,4.54ZM425.61,156.52c-3.79,0-6.99,1.08-9.6,3.23-2.61,2.15-4.19,5.13-4.76,8.92h27.1c-.34-3.4-1.59-6.27-3.74-8.62-2.15-2.35-5.15-3.53-9-3.53Z"/>
        <path class="cls-3" d="M454.33,149.56h9.17v7.81c.96-2.38,2.68-4.5,5.14-6.37s5.96-2.8,10.49-2.8c3.06,0,5.79.62,8.2,1.87,2.41,1.25,4.32,3.3,5.73,6.16,1.42,2.86,2.12,6.73,2.12,11.59v29.31h-9.17v-28.2c0-3.85-.62-6.94-1.87-9.26-1.25-2.32-3.68-3.48-7.3-3.48-2.27,0-4.42.65-6.46,1.95-2.04,1.3-3.7,3.23-4.97,5.78-1.27,2.55-1.91,5.72-1.91,9.51v23.7h-9.17v-47.57Z"/>
        <path class="cls-3" d="M518.46,137.66h46.8v8.15h-18.77v51.31h-9.34v-51.31h-18.69v-8.15Z"/>
        <path class="cls-3" d="M570.61,176.4v-5.61h-9.68c.4-4.7,1.68-8.73,3.86-12.1,2.18-3.37,5.02-5.96,8.54-7.77,3.51-1.81,7.45-2.72,11.81-2.72s8.21,1.1,11.72,3.31c3.51,2.21,6.21,5.42,8.11,9.64,1.9,4.22,2.53,9.3,1.91,15.25h-36.27ZM585.14,198.48c-4.59,0-8.61-.93-12.06-2.8-3.46-1.87-6.23-4.46-8.32-7.77-2.1-3.31-3.34-7.15-3.74-11.51h9.6c.4,4.08,1.8,7.39,4.2,9.94,2.41,2.55,5.85,3.82,10.32,3.82,3.34,0,5.99-.78,7.94-2.34,1.95-1.56,3.33-3.5,4.12-5.82h9.68c-1.13,4.93-3.6,8.91-7.39,11.93-3.79,3.03-8.58,4.54-14.36,4.54ZM585.14,156.52c-3.79,0-6.99,1.08-9.6,3.23-2.61,2.15-4.19,5.13-4.76,8.92h27.1c-.34-3.4-1.59-6.27-3.74-8.62-2.15-2.35-5.15-3.53-9-3.53Z"/>
        <path class="cls-3" d="M658.44,177.16c-.17,4.08-1.18,7.73-3.02,10.96-1.84,3.23-4.4,5.76-7.69,7.6-3.28,1.84-7.16,2.76-11.64,2.76-4.93,0-9.22-1.06-12.87-3.19-3.65-2.12-6.47-5.08-8.45-8.88-1.98-3.79-2.97-8.13-2.97-13s.99-9.29,2.97-13.08c1.98-3.79,4.8-6.77,8.45-8.92,3.65-2.15,7.94-3.23,12.87-3.23,4.3,0,8.08.95,11.34,2.85,3.26,1.9,5.83,4.36,7.73,7.39,1.9,3.03,2.93,6.3,3.1,9.81h-9.68c-.11-1.92-.64-3.78-1.57-5.56-.93-1.78-2.29-3.24-4.08-4.37-1.78-1.13-4.06-1.7-6.84-1.7-3.34,0-6.12.72-8.32,2.17s-3.85,3.44-4.93,5.99c-1.08,2.55-1.61,5.44-1.61,8.66,0,4.81,1.22,8.79,3.65,11.93,2.43,3.14,6.17,4.71,11.21,4.71,2.94,0,5.34-.61,7.18-1.83,1.84-1.22,3.21-2.82,4.12-4.8.91-1.98,1.42-4.08,1.53-6.29h9.51Z"/>
        <path class="cls-3" d="M674.24,173.42v23.7h-9.17v-63.71h9.17v24.04c.62-1.58,1.58-3.09,2.89-4.5,1.3-1.41,2.99-2.56,5.05-3.44,2.07-.88,4.63-1.32,7.69-1.32s5.79.62,8.2,1.87c2.41,1.25,4.32,3.3,5.73,6.16,1.42,2.86,2.12,6.73,2.12,11.59v29.31h-9.17v-28.2c0-3.85-.62-6.94-1.87-9.26-1.25-2.32-3.68-3.48-7.3-3.48-2.27,0-4.42.65-6.46,1.95-2.04,1.3-3.7,3.23-4.97,5.78-1.27,2.55-1.91,5.72-1.91,9.51Z"/>
      </g>
      <g>
        <rect class="cls-3" x="267.37" y="225.32" width="8.22" height="9.15"/>
        <rect class="cls-3" x="277.74" y="225.32" width="8.15" height="9.15"/>
        <rect class="cls-3" x="317.66" y="284.9" width="8.15" height="9.08"/>
        <rect class="cls-3" x="307.3" y="284.9" width="8.22" height="9.08"/>
        <rect class="cls-3" x="342.73" y="225.25" width="8.69" height="9.23"/>
        <rect class="cls-3" x="378.32" y="225.32" width="8.22" height="9.15"/>
        <rect class="cls-3" x="388.69" y="225.32" width="8.15" height="9.15"/>
        <rect class="cls-3" x="416.23" y="225.32" width="8.22" height="9.15"/>
        <rect class="cls-3" x="426.6" y="225.32" width="8.15" height="9.15"/>
        <path class="cls-3" d="M449.43,272.13h-19.4v-32.11h-9v32.11h-16.92v-31.09l-3.44-.39c-3.27-.36-6.97-.55-11-.55-4.94,0-8.86.62-11.67,1.85-2.89,1.27-5.02,3.43-6.34,6.42-1.28,2.9-1.93,7.01-1.93,12.21,0,4.75.48,8.63,1.43,11.56h-19.59v-32.11h-9v32.11h-21.41v-32.11h-9v32.11h-18.47v-31.87l-.73-.08c-1.82-.21-4.75-.42-8.72-.62-3.98-.21-7.15-.31-9.4-.31-4.79,0-8.63.66-11.42,1.97-2.86,1.35-4.95,3.58-6.21,6.62-1.22,2.95-1.84,6.97-1.84,11.96s.65,9.16,1.93,12.09c1.32,3.02,3.46,5.21,6.37,6.53,2.83,1.28,6.72,1.93,11.56,1.93h183.19v-56.74h-9v48.51ZM378.73,261.12c0-3.46.3-6.16.89-8.03.56-1.77,1.52-3,2.94-3.78,1.47-.81,3.7-1.21,6.64-1.21,1.15,0,3.14.11,5.91.32v23.72h-14.27c-.57-.95-1.05-2.16-1.44-3.61h0c-.44-1.65-.67-4.14-.67-7.41ZM284.78,247.96v24.18h-8.69c-3.01,0-5.4-.39-7.09-1.16-1.62-.74-2.77-1.94-3.49-3.67h0c-.75-1.8-1.14-4.34-1.14-7.57s.37-5.53,1.1-7.31c.7-1.7,1.82-2.9,3.42-3.67,1.66-.79,3.97-1.2,6.88-1.2,2.24,0,5.27.14,9,.41Z"/>
        <rect class="cls-3" x="470.24" y="223.62" width="9" height="56.74"/>
        <rect class="cls-3" x="522.39" y="232.44" width="8.69" height="9.23"/>
        <rect class="cls-3" x="576.32" y="225.25" width="8.69" height="9.23"/>
        <rect class="cls-3" x="619.64" y="284.9" width="8.15" height="9.08"/>
        <path class="cls-3" d="M623.07,240.02h-9v32.11h-16.92v-31.09l-3.44-.39c-3.27-.36-6.97-.55-11-.55-4.94,0-8.86.62-11.67,1.85-2.89,1.27-5.02,3.43-6.34,6.42-1.28,2.9-1.93,7.01-1.93,12.21,0,4.75.48,8.63,1.43,11.56h-16.65v-32.11h-9v41.13c0,3.12-1.13,5.52-3.44,7.36-2.34,1.86-5.31,2.8-8.81,2.8-2.4,0-4.61-.46-6.58-1.36-1.95-.89-3.49-2.13-4.58-3.67-1.08-1.53-1.63-3.25-1.63-5.13,0-1.4.27-4.27.81-8.52.54-4.28,1.2-8.91,1.97-13.79l.14-.9-8.61-.48-.12.73c-2.04,12.23-3.03,19.94-3.03,23.58,0,3.36.98,6.43,2.9,9.14,1.91,2.69,4.56,4.82,7.87,6.35,3.29,1.51,7.03,2.28,11.1,2.28,3.86,0,7.42-.7,10.58-2.08,3.2-1.4,5.76-3.44,7.62-6.08,1.87-2.66,2.82-5.81,2.82-9.37v-1.65h75.51v-40.33ZM588.15,248.42v23.72h-14.27c-.57-.95-1.05-2.16-1.44-3.61-.44-1.65-.67-4.14-.67-7.41,0-3.46.3-6.16.89-8.03.56-1.77,1.52-3,2.94-3.78,1.47-.81,3.7-1.21,6.64-1.21,1.15,0,3.14.11,5.91.32Z"/>
        <rect class="cls-3" x="609.28" y="284.9" width="8.22" height="9.08"/>
        <path class="cls-3" d="M702.31,247.79c-2.32-4.1-5.51-7.16-9.49-9.08h0c-3.94-1.9-8.5-2.87-13.55-2.87-5.31,0-11.73,1-19.09,2.97l-.67.18.69,7.31.88-.16c7.6-1.38,13.23-2.08,16.72-2.08,5.31,0,9.86,1.44,13.54,4.28,3.61,2.79,5.44,7.82,5.44,14.94v8.85h-8.49v-3.97c0-2.76-.69-5.36-2.04-7.72-1.36-2.36-3.22-4.25-5.56-5.64-2.34-1.39-4.95-2.09-7.77-2.09s-5.44.72-7.78,2.13c-2.33,1.41-4.21,3.31-5.58,5.67-1.38,2.36-2.09,4.94-2.09,7.65v3.97h-14.37v-48.51h-9v56.74h71.67v-17.15c0-6.15-1.17-11.34-3.47-15.42ZM666.48,272.13v-4.44c0-1.91.61-3.47,1.86-4.77,1.24-1.29,2.74-1.91,4.59-1.91s3.35.63,4.59,1.91c1.25,1.3,1.86,2.83,1.86,4.69v4.51h-12.9Z"/>
      </g>
      <path class="cls-3" d="M293.53,137.66v29.54l-5.01-5.01-23.79,21.33v-45.86h-9.34v59.46h9.34l28.8-25.82v25.82h9.34v-59.46h-9.34Z"/>
    </g>
  </g>
</svg>